<svg xmlns="http://www.w3.org/2000/svg" width="174" height="75" viewBox="0 0 174 75">
  <g id="Group_5" data-name="Group 5" transform="translate(-2149 -699)">
    <g id="business-standard-logo" transform="translate(1868.385 264.212)">
      <path id="Path_1" data-name="Path 1" d="M289,480.207v-.841a1.282,1.282,0,0,0,.833-.346,1.4,1.4,0,0,0,.238-.917V464.138a1.482,1.482,0,0,0-.238-.943,1.245,1.245,0,0,0-.833-.359v-.828h5.1a6.861,6.861,0,0,1,4.159,1.107,3.613,3.613,0,0,1,1.5,3.064,3.972,3.972,0,0,1-1.168,2.916,6.328,6.328,0,0,1-3.335,1.6,7.066,7.066,0,0,1,3.726,1.585,3.946,3.946,0,0,1,1.287,3.035,4.433,4.433,0,0,1-1.53,3.635,6.834,6.834,0,0,1-4.431,1.255Zm4.257-9.894h.31a2.437,2.437,0,0,0,2.1-.875,4.922,4.922,0,0,0,.646-2.878,6.06,6.06,0,0,0-.493-2.946,1.9,1.9,0,0,0-1.75-.782.9.9,0,0,0-.659.177,1.168,1.168,0,0,0-.161.736v6.568Zm0,.795v6.923a1.8,1.8,0,0,0,.225,1.048.918.918,0,0,0,.773.292,2.068,2.068,0,0,0,1.848-.9,5.112,5.112,0,0,0,.6-2.8,5.83,5.83,0,0,0-.807-3.487A3.144,3.144,0,0,0,293.257,471.108Z" transform="translate(0 -1.771)" fill="#ac2121"/>
      <path id="Path_2" data-name="Path 2" d="M401.264,515.385a1.753,1.753,0,0,0-.187-.947,1.029,1.029,0,0,0-.684-.364v-.795c.79,0,1.47-.009,2.039-.03s1.1-.051,1.58-.093v10.089a1.652,1.652,0,0,0,.2.968,1.131,1.131,0,0,0,.765.334v.828c-1,.042-1.759.076-2.26.106s-.964.059-1.389.093l-.051-1.8a5.57,5.57,0,0,1-1.445,1.416,2.88,2.88,0,0,1-1.542.44,2.128,2.128,0,0,1-1.942-.9,6.133,6.133,0,0,1-.574-3.115v-6.238a1.8,1.8,0,0,0-.178-.959,1.023,1.023,0,0,0-.667-.351v-.795c.79,0,1.47-.009,2.039-.03s1.1-.051,1.58-.093v8.753a3.287,3.287,0,0,0,.255,1.517.892.892,0,0,0,.841.452,1.307,1.307,0,0,0,1.181-.723,4.081,4.081,0,0,0,.425-2.037v-5.735Z" transform="translate(-93.442 -46.89)" fill="#ac2121"/>
      <path id="Path_3" data-name="Path 3" d="M491.431,519.183h.884a7.159,7.159,0,0,0,1.215,3.119,2.483,2.483,0,0,0,2,1.141,1.421,1.421,0,0,0,1.478-1.471,1.833,1.833,0,0,0-.335-1.027,3.419,3.419,0,0,0-.973-.93c-.115-.076-.28-.182-.5-.321a11.509,11.509,0,0,1-3.237-2.714,3.2,3.2,0,0,1-.4-.942,4.153,4.153,0,0,1-.132-1.065,3.42,3.42,0,0,1,.854-2.367,2.712,2.712,0,0,1,2.1-.955,3.5,3.5,0,0,1,1.283.292,3.815,3.815,0,0,0,.884.292.61.61,0,0,0,.391-.148,1.21,1.21,0,0,0,.306-.41h.786v4.459h-.845a7.856,7.856,0,0,0-1.207-2.718,2.048,2.048,0,0,0-1.619-.934,1.226,1.226,0,0,0-.913.385,1.284,1.284,0,0,0-.378.942q0,1,2.141,2.329l.051.026a10.25,10.25,0,0,1,2.732,2.24,3.7,3.7,0,0,1,.752,2.278,3.646,3.646,0,0,1-.982,2.561,3.118,3.118,0,0,1-2.379,1.065,3.545,3.545,0,0,1-1.449-.334,4.036,4.036,0,0,0-.888-.334.632.632,0,0,0-.332.122,4.033,4.033,0,0,0-.565.545h-.71v-5.127Z" transform="translate(-178.558 -45.561)" fill="#ac2121"/>
      <path id="Path_4" data-name="Path 4" d="M566.852,477.464a1.614,1.614,0,0,0,.212.947,1.165,1.165,0,0,0,.76.376v.756H563.13v-.756a1.165,1.165,0,0,0,.765-.376,1.659,1.659,0,0,0,.2-.947v-7.815a1.664,1.664,0,0,0-.212-.985,1.076,1.076,0,0,0-.748-.33v-.841c.455-.017.956-.038,1.5-.068s1.279-.072,2.213-.131v10.169Zm-.072-14.662a1.479,1.479,0,0,1-.467,1.082,1.514,1.514,0,0,1-2.175.009,1.5,1.5,0,0,1,0-2.173,1.551,1.551,0,0,1,2.642,1.082Z" transform="translate(-241.807 -1.107)" fill="#ac2121"/>
      <path id="Path_5" data-name="Path 5" d="M617.222,522.486a1.616,1.616,0,0,0,.212.947,1.166,1.166,0,0,0,.761.376v.756H613.5v-.756a1.144,1.144,0,0,0,.748-.372,1.693,1.693,0,0,0,.2-.955v-7.811a1.7,1.7,0,0,0-.2-.989,1.045,1.045,0,0,0-.727-.321v-.841c.973-.042,1.708-.076,2.214-.106s.973-.059,1.393-.093l.051,1.8a5.6,5.6,0,0,1,1.444-1.386,2.913,2.913,0,0,1,1.542-.435,2.125,2.125,0,0,1,1.942.892,6.1,6.1,0,0,1,.574,3.106v6.192a1.754,1.754,0,0,0,.187.947,1.05,1.05,0,0,0,.659.376v.756H619.9V516a3.373,3.373,0,0,0-.242-1.521.874.874,0,0,0-.828-.435,1.31,1.31,0,0,0-1.181.71,4.006,4.006,0,0,0-.425,2.024Z" transform="translate(-286.237 -46.13)" fill="#ac2121"/>
      <path id="Path_6" data-name="Path 6" d="M715.4,519.947h.82a5.238,5.238,0,0,1-1.2,3.233,3.531,3.531,0,0,1-2.757,1.162,3.868,3.868,0,0,1-3.242-1.707,7.28,7.28,0,0,1-1.262-4.434,8.2,8.2,0,0,1,1.232-4.712,3.706,3.706,0,0,1,3.174-1.8,3.348,3.348,0,0,1,2.982,1.716,9.018,9.018,0,0,1,1.075,4.8v.1h-5.379v.457a7.631,7.631,0,0,0,.523,3.2,1.671,1.671,0,0,0,1.568,1.082,2,2,0,0,0,1.619-.8A4.53,4.53,0,0,0,715.4,519.947Zm-4.58-2.663h2.554V516.5a12.277,12.277,0,0,0-.272-3.119c-.183-.6-.493-.892-.935-.892s-.786.376-1.007,1.129a12.831,12.831,0,0,0-.336,3.419v.245Z" transform="translate(-369.383 -45.593)" fill="#ac2121"/>
      <path id="Path_7" data-name="Path 7" d="M790.6,519.183h.884A7.163,7.163,0,0,0,792.7,522.3a2.484,2.484,0,0,0,2,1.141,1.421,1.421,0,0,0,1.479-1.471,1.833,1.833,0,0,0-.336-1.027,3.419,3.419,0,0,0-.973-.93c-.115-.076-.28-.182-.5-.321a11.515,11.515,0,0,1-3.238-2.714,3.211,3.211,0,0,1-.4-.942,4.164,4.164,0,0,1-.132-1.065,3.42,3.42,0,0,1,.854-2.367,2.712,2.712,0,0,1,2.1-.955,3.5,3.5,0,0,1,1.283.292,3.819,3.819,0,0,0,.884.292.61.61,0,0,0,.391-.148,1.207,1.207,0,0,0,.306-.41h.786v4.459h-.845a7.86,7.86,0,0,0-1.207-2.718,2.048,2.048,0,0,0-1.619-.934,1.226,1.226,0,0,0-.913.385,1.283,1.283,0,0,0-.378.942q0,1,2.141,2.329l.051.026a10.248,10.248,0,0,1,2.732,2.24,3.7,3.7,0,0,1,.752,2.278,3.647,3.647,0,0,1-.981,2.561,3.119,3.119,0,0,1-2.379,1.065,3.545,3.545,0,0,1-1.449-.334,4.032,4.032,0,0,0-.888-.334.631.631,0,0,0-.331.122,4.013,4.013,0,0,0-.565.545h-.71v-5.127Z" transform="translate(-442.452 -45.561)" fill="#ac2121"/>
      <path id="Path_8" data-name="Path 8" d="M863.637,519.183h.884a7.161,7.161,0,0,0,1.215,3.119,2.483,2.483,0,0,0,2,1.141,1.421,1.421,0,0,0,1.479-1.471,1.832,1.832,0,0,0-.336-1.027,3.417,3.417,0,0,0-.973-.93c-.115-.076-.28-.182-.5-.321a11.511,11.511,0,0,1-3.238-2.714,3.215,3.215,0,0,1-.4-.942,4.158,4.158,0,0,1-.132-1.065,3.421,3.421,0,0,1,.854-2.367,2.712,2.712,0,0,1,2.1-.955,3.5,3.5,0,0,1,1.283.292,3.81,3.81,0,0,0,.884.292.609.609,0,0,0,.391-.148,1.209,1.209,0,0,0,.306-.41h.786v4.459h-.845a7.862,7.862,0,0,0-1.207-2.718,2.047,2.047,0,0,0-1.619-.934,1.227,1.227,0,0,0-.914.385,1.284,1.284,0,0,0-.378.942q0,1,2.141,2.329l.051.026a10.251,10.251,0,0,1,2.732,2.24,3.7,3.7,0,0,1,.752,2.278,3.647,3.647,0,0,1-.981,2.561,3.119,3.119,0,0,1-2.379,1.065,3.547,3.547,0,0,1-1.449-.334,4.028,4.028,0,0,0-.888-.334.631.631,0,0,0-.331.122,4.034,4.034,0,0,0-.565.545h-.709v-5.127Z" transform="translate(-506.877 -45.561)" fill="#ac2121"/>
      <path id="Path_9" data-name="Path 9" d="M980.54,478.749v-6.242h1.07a10.624,10.624,0,0,0,1.691,3.905,3.016,3.016,0,0,0,2.388,1.369,1.86,1.86,0,0,0,1.415-.57,2.065,2.065,0,0,0,.54-1.488,3.494,3.494,0,0,0-.535-1.784,18.918,18.918,0,0,0-2.541-2.933c-.2-.19-.48-.461-.845-.816a18.659,18.659,0,0,1-2.167-2.375,6.816,6.816,0,0,1-.8-1.653,5.516,5.516,0,0,1-.268-1.691,4.687,4.687,0,0,1,1.113-3.182A3.455,3.455,0,0,1,984.3,460a3.662,3.662,0,0,1,1.5.384,3.827,3.827,0,0,0,1.071.385.928.928,0,0,0,.535-.173,1.466,1.466,0,0,0,.437-.52h.834v5.93h-1.02a11.261,11.261,0,0,0-1.432-3.808,2.47,2.47,0,0,0-2.031-1.281,1.743,1.743,0,0,0-1.283.495,1.724,1.724,0,0,0-.5,1.276c0,.943.995,2.375,2.987,4.311l.25.237c.06.059.157.148.3.271a20.309,20.309,0,0,1,2.3,2.489,6.791,6.791,0,0,1,1.343,4.087,4.969,4.969,0,0,1-1.113,3.331,3.531,3.531,0,0,1-2.809,1.314,4.706,4.706,0,0,1-1.865-.435,5.139,5.139,0,0,0-1.219-.435.867.867,0,0,0-.522.169,3.933,3.933,0,0,0-.671.723Z" transform="translate(-609.949 0)" fill="#ac2121"/>
      <path id="Path_10" data-name="Path 10" d="M1066.571,482.952v-8.5H1065.3v-1.014a4.961,4.961,0,0,0,2.066-2.037,8.963,8.963,0,0,0,.96-3.411h.994v5.448h2.213v1.014h-2.213V483a2.39,2.39,0,0,0,.144,1,.51.51,0,0,0,.493.279c.323,0,.574-.228.752-.68a5.278,5.278,0,0,0,.268-1.881h.821v.2a4.936,4.936,0,0,1-.714,2.9,2.425,2.425,0,0,1-2.1.989,2.274,2.274,0,0,1-1.831-.689A3.3,3.3,0,0,1,1066.571,482.952Z" transform="translate(-684.764 -7.051)" fill="#ac2121"/>
      <path id="Path_11" data-name="Path 11" d="M1129.3,522.782a4,4,0,0,1-1.219,1.255,2.768,2.768,0,0,1-1.483.427,2.343,2.343,0,0,1-1.818-.786,2.877,2.877,0,0,1-.71-2.012,4.2,4.2,0,0,1,1.325-2.992,9.31,9.31,0,0,1,3.739-2.172v-1.707a2.891,2.891,0,0,0-.318-1.568,1.2,1.2,0,0,0-1.075-.465,1.834,1.834,0,0,0-.654.123,2.238,2.238,0,0,0-.578.334,1.592,1.592,0,0,1,.773.533,1.349,1.349,0,0,1,.272.841,1.264,1.264,0,0,1-.4.968,1.5,1.5,0,0,1-1.061.372,1.609,1.609,0,0,1-1.165-.423,1.441,1.441,0,0,1-.441-1.091,2.188,2.188,0,0,1,1.121-1.826,4.832,4.832,0,0,1,2.775-.761,3.831,3.831,0,0,1,2.667.786,3.225,3.225,0,0,1,.855,2.481v6.513a2.747,2.747,0,0,0,.088.892.316.316,0,0,0,.31.2.458.458,0,0,0,.425-.342,3.06,3.06,0,0,0,.136-1.048h.646v.347a3.466,3.466,0,0,1-.532,2.079,1.77,1.77,0,0,1-1.512.719,1.971,1.971,0,0,1-1.25-.41A3.2,3.2,0,0,1,1129.3,522.782Zm-.161-5.3a2.841,2.841,0,0,0-1.67,1.268,4.462,4.462,0,0,0-.6,2.409,2.723,2.723,0,0,0,.23,1.264.746.746,0,0,0,.692.422,1.118,1.118,0,0,0,.953-.651,3.166,3.166,0,0,0,.39-1.64v-3.073Z" transform="translate(-736.605 -45.719)" fill="#ac2121"/>
      <path id="Path_12" data-name="Path 12" d="M1213.688,522.486a1.614,1.614,0,0,0,.212.947,1.165,1.165,0,0,0,.76.376v.756h-4.69v-.756a1.143,1.143,0,0,0,.748-.372,1.69,1.69,0,0,0,.2-.955v-7.811a1.7,1.7,0,0,0-.2-.989,1.046,1.046,0,0,0-.726-.321v-.841c.973-.042,1.707-.076,2.213-.106s.973-.059,1.394-.093l.051,1.8a5.592,5.592,0,0,1,1.445-1.386,2.913,2.913,0,0,1,1.542-.435,2.124,2.124,0,0,1,1.941.892,6.086,6.086,0,0,1,.574,3.106v6.192a1.75,1.75,0,0,0,.188.947,1.046,1.046,0,0,0,.658.376v.756h-3.625V516a3.37,3.37,0,0,0-.242-1.521.874.874,0,0,0-.829-.435,1.31,1.31,0,0,0-1.18.71,4,4,0,0,0-.426,2.024v5.71Z" transform="translate(-812.376 -46.13)" fill="#ac2121"/>
      <path id="Path_13" data-name="Path 13" d="M1312.524,462.3a1.405,1.405,0,0,0-.25-.942,1.591,1.591,0,0,0-.948-.372v-.752c.705-.034,1.389-.068,2.048-.106s1.3-.08,1.924-.131v16.407a1.6,1.6,0,0,0,.188.943,1.054,1.054,0,0,0,.735.271v.815c-.06,0-.144,0-.263.013-1.411.068-2.524.135-3.336.211l-.051-1.314a4.9,4.9,0,0,1-1.208,1.048,2.352,2.352,0,0,1-1.193.351,3,3,0,0,1-2.689-1.661,9.079,9.079,0,0,1-.981-4.607,8.912,8.912,0,0,1,1.058-4.624,3.108,3.108,0,0,1,2.7-1.763,2.365,2.365,0,0,1,1.206.321,3.593,3.593,0,0,1,1.058.989Zm0,7.713a3.507,3.507,0,0,0-.412-1.847,1.257,1.257,0,0,0-1.122-.668,1.183,1.183,0,0,0-1.156.955,14.73,14.73,0,0,0-.322,3.888,15.036,15.036,0,0,0,.343,4.045,1.245,1.245,0,0,0,1.216.985,1.2,1.2,0,0,0,1.058-.63,3.219,3.219,0,0,0,.4-1.72v-5.008Z" transform="translate(-897.524 0)" fill="#ac2121"/>
      <path id="Path_14" data-name="Path 14" d="M1400.62,522.782a3.974,3.974,0,0,1-1.219,1.255,2.761,2.761,0,0,1-1.482.427,2.342,2.342,0,0,1-1.818-.786,2.875,2.875,0,0,1-.71-2.012,4.2,4.2,0,0,1,1.326-2.992,9.3,9.3,0,0,1,3.739-2.172v-1.707a2.89,2.89,0,0,0-.318-1.568,1.2,1.2,0,0,0-1.075-.465,1.831,1.831,0,0,0-.654.123,2.237,2.237,0,0,0-.578.334,1.592,1.592,0,0,1,.773.533,1.348,1.348,0,0,1,.272.841,1.263,1.263,0,0,1-.4.968,1.5,1.5,0,0,1-1.062.372,1.608,1.608,0,0,1-1.164-.423,1.442,1.442,0,0,1-.442-1.091,2.19,2.19,0,0,1,1.123-1.826,4.831,4.831,0,0,1,2.775-.761,3.833,3.833,0,0,1,2.667.786,3.224,3.224,0,0,1,.854,2.481v6.513a2.738,2.738,0,0,0,.089.892.316.316,0,0,0,.31.2.459.459,0,0,0,.426-.342,3.063,3.063,0,0,0,.136-1.048h.646v.347a3.467,3.467,0,0,1-.532,2.079,1.771,1.771,0,0,1-1.513.719,1.971,1.971,0,0,1-1.249-.41A3.181,3.181,0,0,1,1400.62,522.782Zm-.165-5.3a2.848,2.848,0,0,0-1.67,1.268,4.463,4.463,0,0,0-.6,2.409,2.739,2.739,0,0,0,.229,1.264.747.747,0,0,0,.693.422,1.116,1.116,0,0,0,.952-.651,3.155,3.155,0,0,0,.391-1.64v-3.073Z" transform="translate(-975.933 -45.719)" fill="#ac2121"/>
      <path id="Path_15" data-name="Path 15" d="M1479.632,524.566v-.756a1.684,1.684,0,0,0,.884-.389,1.544,1.544,0,0,0,.212-.959v-7.836a1.442,1.442,0,0,0-.243-.959,1.54,1.54,0,0,0-.926-.364v-.782l.225-.013c1.551-.068,2.749-.127,3.6-.186l.025,2.586a4.952,4.952,0,0,1,1.113-1.944,2.1,2.1,0,0,1,1.513-.668,1.6,1.6,0,0,1,1.177.452,1.585,1.585,0,0,1,.455,1.171,1.507,1.507,0,0,1-.442,1.116,1.567,1.567,0,0,1-1.139.435,1.328,1.328,0,0,1-.9-.308,1.978,1.978,0,0,1-.561-.917,5.815,5.815,0,0,0-.888,2.193,15.341,15.341,0,0,0-.305,3.267v2.612a1.069,1.069,0,0,0,1.33,1.335h.149v.917h-5.281Z" transform="translate(-1050.178 -46.13)" fill="#ac2121"/>
      <path id="Path_16" data-name="Path 16" d="M1558.584,462.3a1.4,1.4,0,0,0-.25-.942,1.593,1.593,0,0,0-.948-.372v-.752c.705-.034,1.389-.068,2.048-.106s1.3-.08,1.924-.131v16.407a1.6,1.6,0,0,0,.188.943,1.054,1.054,0,0,0,.735.271v.815c-.059,0-.145,0-.263.013-1.411.068-2.524.135-3.336.211l-.051-1.314a4.888,4.888,0,0,1-1.206,1.048,2.36,2.36,0,0,1-1.195.351,3,3,0,0,1-2.689-1.661,9.079,9.079,0,0,1-.981-4.607,8.912,8.912,0,0,1,1.058-4.624,3.108,3.108,0,0,1,2.7-1.763,2.366,2.366,0,0,1,1.206.321,3.6,3.6,0,0,1,1.058.989Zm0,7.713a3.507,3.507,0,0,0-.412-1.847,1.256,1.256,0,0,0-1.121-.668,1.184,1.184,0,0,0-1.157.955,14.756,14.756,0,0,0-.322,3.888,14.957,14.957,0,0,0,.344,4.045,1.243,1.243,0,0,0,1.214.985,1.2,1.2,0,0,0,1.058-.63,3.208,3.208,0,0,0,.4-1.72v-5.008Z" transform="translate(-1114.57 0)" fill="#ac2121"/>
    </g>
    <g id="Rectangle_7" data-name="Rectangle 7" transform="translate(2149 699)" fill="none" stroke="#bebcbc" stroke-width="1" opacity="0.75">
      <rect width="174" height="75" stroke="none"/>
      <rect x="0.5" y="0.5" width="173" height="74" fill="none"/>
    </g>
  </g>
</svg>
