<?xml version="1.0" encoding="UTF-8"?>
<!DOCTYPE svg PUBLIC "-//W3C//DTD SVG 1.0//EN" "http://www.w3.org/TR/2001/REC-SVG-20010904/DTD/svg10.dtd">
<!-- Creator: CorelDRAW 2020 (64-Bit) -->
<svg xmlns="http://www.w3.org/2000/svg" xml:space="preserve" width="175px" height="76px" version="1.0" style="shape-rendering:geometricPrecision; text-rendering:geometricPrecision; image-rendering:optimizeQuality; fill-rule:evenodd; clip-rule:evenodd"
viewBox="0 0 173.33 75.3"
 xmlns:xlink="http://www.w3.org/1999/xlink"
 xmlns:xodm="http://www.corel.com/coreldraw/odm/2003">
 <defs>
  <style type="text/css">
   <![CDATA[
    .str0 {stroke:#BEBCBC;stroke-width:1.03;stroke-miterlimit:22.9256;stroke-opacity:0.749020}
    .fil0 {fill:none}
    .fil1 {fill:#F99D1C;fill-rule:nonzero}
   ]]>
  </style>
 </defs>
 <g id="Layer_x0020_1">
  <metadata id="CorelCorpID_0Corel-Layer"/>
  <g id="_1986863096544">
   <polygon class="fil0 str0" points="0.52,74.78 172.82,74.78 172.82,0.52 0.52,0.52 "/>
   <g>
    <g id="Layer_2" data-name="Layer 2">
     <g id="Layer_1-2" data-name="Layer 1">
      <g>
       <path class="fil1" d="M84.55 11.43c0.01,0 0.02,0 0.03,0 4.16,0 7.54,3.38 7.54,7.54 0,4.16 -3.38,7.54 -7.54,7.54 -4.15,0 -7.52,-3.36 -7.54,-7.51 0,0 0,0 0,0 0,-4.16 3.35,-7.54 7.51,-7.57l0 0zm0 0l0 0 0 0z"/>
      </g>
      <path class="fil1" d="M31.43 63.43l-18.54 0 0 -6.02 1.37 0c0.91,0 1.22,-0.51 1.22,-1.34l0 -18.58c0,-0.84 -0.31,-1.34 -1.22,-1.34l-1.37 0 0 -6.13 16.72 0 0 5.2c2.39,-3.36 5.5,-5.9 10.48,-5.9 6.58,0 8.79,2.63 9.55,6.53 2.15,-4.02 6.34,-6.53 10.9,-6.53 8.35,0 9.5,4 9.5,9.96l0 16.81c0,0.83 0.37,1.34 1.4,1.34l1.06 0 0 6.02 -18.22 0 0 -6.02 0.49 0c0.84,0 1.21,-0.51 1.21,-1.34l0 -15.28c0,-2.75 -0.94,-3.64 -2.86,-3.64 -2.55,0 -3.38,2.11 -3.38,5.36l0 13.5c0,0.89 0.38,1.4 1.22,1.4l0.75 0 0 6.02 -17.72 0 0 -6.02 0.51 0c0.81,0 1.2,-0.51 1.2,-1.34l0 -15.28c0,-2.75 -0.95,-3.64 -2.87,-3.64 -2.55,0 -3.37,2.11 -3.37,5.36l0 13.5c0,0.89 0.32,1.4 1.21,1.4l0.76 0 0 6z"/>
      <path class="fil1" d="M77.64 37.49c0,-0.84 -0.31,-1.34 -1.21,-1.34l-1.39 0 0 -6.13 16.59 0 0 26.06c0,0.89 0.32,1.4 1.21,1.4l1.24 0 0 6.02 -19.04 0 0 -6.02 1.37 0c0.9,0 1.21,-0.51 1.21,-1.34l0.02 -18.65z"/>
      <path class="fil1" d="M115.51 63.43l-18.54 0 0 -6.02 1.37 0c0.9,0 1.22,-0.51 1.22,-1.34l0 -18.58c0,-0.84 -0.32,-1.34 -1.22,-1.34l-1.37 0 0 -6.13 16.57 0 0 5.26c2.46,-3.72 6.62,-5.96 11.08,-5.96 0.02,0 0.04,0 0.06,0 7.72,0 9.4,4 9.4,9.96l0 16.81c0,0.83 0.31,1.34 1.33,1.34l1.12 0 0 6.02 -18.47 0 0 -6.02 0.76 0c0.82,0 1.22,-0.51 1.22,-1.34l0 -15.28c0,-2.75 -1.01,-3.64 -2.87,-3.64 -1.87,0 -3.63,1.47 -3.63,4.71l0 14.15c-0.01,0.05 -0.01,0.11 -0.01,0.17 0,0.68 0.56,1.24 1.24,1.24 0.05,0 0.09,0 0.13,-0.01l0.61 0 0 6z"/>
      <path class="fil1" d="M136.18 30.02l4.94 -0.19 0.59 -7.6 12.52 0 0 7.79 5.9 0 0 6.26 -5.9 0 0 15.14c0,3.95 0.76,5.23 5.1,5.23l1.11 0 0 6.78c-2.67,0.28 -5.38,0.44 -8.07,0.44 -0.07,0 -0.15,0 -0.22,0 -7.91,0 -11.91,-2.46 -11.91,-9.02l0 -18.57 -4.01 0 -0.05 -6.26z"/>
     </g>
    </g>
   </g>
  </g>
 </g>
</svg>
