<svg xmlns="http://www.w3.org/2000/svg" width="174" height="75" viewBox="0 0 174 75">
  <g id="Group_4" data-name="Group 4" transform="translate(-2146 -603)">
    <g id="Rectangle_4" data-name="Rectangle 4" transform="translate(2146 603)" fill="none" stroke="#bebcbc" stroke-width="1" opacity="0.75">
      <rect width="174" height="75" stroke="none"/>
      <rect x="0.5" y="0.5" width="173" height="74" fill="none"/>
    </g>
    <g id="VCC-logo" transform="translate(2770.791 645.418)">
      <g id="vccircle" transform="translate(-608.6 -28.563)">
        <path id="Fill-11" d="M-592.145-85.9-597.4-39.508h-5.946L-608.6-85.9h5.393l2.627,35.952v.691a.585.585,0,0,0,0,.484c.069.207.138.277.207.277s.138-.069.207-.277a.585.585,0,0,0,0-.484c-.069-.069-.069-.069,0-.138v-.484l2.627-35.952,5.393-.069Z" transform="translate(608.6 86.315)"/>
        <path id="Fill-13" d="M-566.476-43.91a1.659,1.659,0,0,0,.83-.484,3.48,3.48,0,0,0,.691-.9,3.727,3.727,0,0,0,.207-1.521l.069-2.351h4.771v2.143a4.893,4.893,0,0,0-.069.968,3.658,3.658,0,0,0-.069.9,3.5,3.5,0,0,1-.138.9,6.029,6.029,0,0,1-.691,1.728,5.386,5.386,0,0,1-.968,1.314,10.4,10.4,0,0,1-1.59,1.175,5.656,5.656,0,0,1-3.042.761h-4.079a5.491,5.491,0,0,1-3.042-.761,10.4,10.4,0,0,1-1.59-1.175,8.089,8.089,0,0,1-.968-1.314,6.028,6.028,0,0,1-.691-1.728c-.069-.277-.138-.553-.207-.9a4.252,4.252,0,0,1-.069-.9,2.278,2.278,0,0,1,0-.968v-31.8a2.278,2.278,0,0,1,0-.968,3.365,3.365,0,0,1,.069-.83c.069-.277.138-.622.207-.9a6.028,6.028,0,0,1,.691-1.728,5.383,5.383,0,0,1,.968-1.314,10.4,10.4,0,0,1,1.59-1.175,5.657,5.657,0,0,1,3.042-.761h3.872a5.49,5.49,0,0,1,3.042.761,10.4,10.4,0,0,1,1.59,1.175,8.09,8.09,0,0,1,.968,1.314,6.032,6.032,0,0,1,.691,1.728,4.053,4.053,0,0,1,.138.9,3.1,3.1,0,0,0,.069.83,4.9,4.9,0,0,0,.069.968v2.005h-4.771v-5.185h-4.632l-1.037.207a1.366,1.366,0,0,0-.76.415,3.48,3.48,0,0,0-.691.9,3.726,3.726,0,0,0-.207,1.521l-.069,3.319v25.72l.069,3.319a11.358,11.358,0,0,0,.207,1.521,3.48,3.48,0,0,0,.691.9,2.526,2.526,0,0,0,.968.484,7.7,7.7,0,0,0,1.175.138h1.729a5.416,5.416,0,0,1,.968-.346" transform="translate(598.902 86.5)"/>
        <path id="Fill-15" d="M-535.145-43.879a1.659,1.659,0,0,0,.83-.484,3.48,3.48,0,0,0,.691-.9,3.727,3.727,0,0,0,.207-1.521l.069-2.351h4.771v2.143a4.893,4.893,0,0,0-.069.968v.968a3.5,3.5,0,0,1-.138.9,6.031,6.031,0,0,1-.691,1.728,5.385,5.385,0,0,1-.968,1.314,10.4,10.4,0,0,1-1.59,1.175,5.657,5.657,0,0,1-3.042.761h-4.079a5.491,5.491,0,0,1-3.042-.761,10.4,10.4,0,0,1-1.59-1.175,8.086,8.086,0,0,1-.968-1.314,6.028,6.028,0,0,1-.691-1.728c-.069-.277-.138-.553-.207-.9a4.259,4.259,0,0,1-.069-.9,2.278,2.278,0,0,1,0-.968v-31.8a2.278,2.278,0,0,1,0-.968,3.371,3.371,0,0,1,.069-.83c.069-.277.138-.622.207-.9a6.028,6.028,0,0,1,.691-1.728,5.385,5.385,0,0,1,.968-1.314,10.4,10.4,0,0,1,1.59-1.175,5.657,5.657,0,0,1,3.042-.761h3.872a5.49,5.49,0,0,1,3.042.761,10.4,10.4,0,0,1,1.59,1.175,8.089,8.089,0,0,1,.968,1.314,6.029,6.029,0,0,1,.691,1.728,4.046,4.046,0,0,1,.138.9,3.1,3.1,0,0,0,.069.83,4.9,4.9,0,0,0,.069.968v1.936h-4.771v-5.185h-4.632l-1.037.207a1.366,1.366,0,0,0-.76.415,3.478,3.478,0,0,0-.691.9,3.725,3.725,0,0,0-.207,1.521l-.069,3.319v25.72l.069,3.319a11.355,11.355,0,0,0,.207,1.521,3.478,3.478,0,0,0,.691.9,2.525,2.525,0,0,0,.968.484,7.7,7.7,0,0,0,1.175.138h1.728a4.8,4.8,0,0,1,.9-.346" transform="translate(589.212 86.469)"/>
        <path id="Fill-17" d="M-455.676-43.91a1.659,1.659,0,0,0,.83-.484,3.48,3.48,0,0,0,.691-.9,3.727,3.727,0,0,0,.207-1.521l.069-2.351h4.771v2.143a4.9,4.9,0,0,0-.069.968,3.653,3.653,0,0,0-.069.9,3.5,3.5,0,0,1-.138.9,6.029,6.029,0,0,1-.691,1.728,5.385,5.385,0,0,1-.968,1.314,10.4,10.4,0,0,1-1.59,1.175,5.657,5.657,0,0,1-3.042.761h-4.079a5.49,5.49,0,0,1-3.042-.761,10.4,10.4,0,0,1-1.59-1.175,8.088,8.088,0,0,1-.968-1.314,6.029,6.029,0,0,1-.691-1.728c-.069-.277-.138-.553-.207-.9a4.254,4.254,0,0,1-.069-.9,2.278,2.278,0,0,1,0-.968v-31.8a2.278,2.278,0,0,1,0-.968,3.365,3.365,0,0,1,.069-.83c.069-.277.138-.622.207-.9a6.029,6.029,0,0,1,.691-1.728,5.384,5.384,0,0,1,.968-1.314,10.4,10.4,0,0,1,1.59-1.175,5.657,5.657,0,0,1,3.042-.761h3.872a5.49,5.49,0,0,1,3.042.761,10.4,10.4,0,0,1,1.59,1.175,8.09,8.09,0,0,1,.968,1.314,6.029,6.029,0,0,1,.691,1.728,3.652,3.652,0,0,1,.069.9,3.1,3.1,0,0,0,.069.83,4.9,4.9,0,0,0,.069.968v2.005h-4.771v-5.185h-4.632l-1.037.207a1.366,1.366,0,0,0-.761.415,3.479,3.479,0,0,0-.691.9,3.726,3.726,0,0,0-.207,1.521l-.069,3.319v25.72l.069,3.319a11.362,11.362,0,0,0,.207,1.521,3.479,3.479,0,0,0,.691.9,2.526,2.526,0,0,0,.968.484,7.7,7.7,0,0,0,1.175.138h1.728a6.083,6.083,0,0,1,1.037-.346" transform="translate(564.708 86.5)"/>
        <path id="Fill-19" d="M-435.6-85.9h4.7v41.829h10.3v4.563h-15Z" transform="translate(555.211 86.315)"/>
        <path id="Fill-21" d="M-408.1-85.9h14.658v4.494h-9.887v12.1h6.43v4.494h-6.43V-44h10.509v4.494H-408.1Z" transform="translate(546.724 86.315)"/>
        <path id="Fill-23" d="M-509.8-82.65a3.246,3.246,0,0,1-3.249,3.25,3.246,3.246,0,0,1-3.25-3.25,3.246,3.246,0,0,1,3.25-3.25,3.246,3.246,0,0,1,3.249,3.25" transform="translate(580.115 86.315)"/>
        <path id="Fill-25" d="M-512.68-72.339a4.191,4.191,0,0,1-2.42-.761v37.543h4.771V-73.1a3.978,3.978,0,0,1-2.351.761" transform="translate(579.745 82.365)"/>
        <path id="Fill-27" d="M-488.939-69.445a3.389,3.389,0,0,1-3.6,3.526h-3.6V-81.406h4.425a2.507,2.507,0,0,1,2.7,2.489l.069,9.472Zm5.116,26.48V-58.59s-.415-5.047-5.116-5.047c0,0,4.771.415,4.771-3.526V-81.337s.138-4.563-5.739-4.563H-500.9v46.392h4.771v-20.88h5.531s1.936-.207,1.936,3.111v15.211a2.857,2.857,0,0,0,3.18,2.766h3.664v-.277a4.279,4.279,0,0,1-2.005-3.388Z" transform="translate(575.363 86.315)"/>
      </g>
    </g>
    <g id="Rectangle_5" data-name="Rectangle 5" transform="translate(2146 603)" fill="none" stroke="#bebcbc" stroke-width="1" opacity="0.75">
      <rect width="174" height="75" stroke="none"/>
      <rect x="0.5" y="0.5" width="173" height="74" fill="none"/>
    </g>
  </g>
</svg>
